<?xml version="1.0" standalone="no"?>
<!DOCTYPE svg PUBLIC "-//W3C//DTD SVG 20010904//EN"
 "http://www.w3.org/TR/2001/REC-SVG-20010904/DTD/svg10.dtd">
<svg version="1.0" xmlns="http://www.w3.org/2000/svg"
 width="500.000000pt" height="500.000000pt" viewBox="0 0 500.000000 500.000000"
 preserveAspectRatio="xMidYMid meet">
<metadata>
Created by potrace 1.14, written by Peter Selinger 2001-2017
</metadata>
<g transform="translate(0.000000,500.000000) scale(0.100000,-0.100000)"
fill="#000000" stroke="none">
<path d="M2280 4403 c-96 -12 -292 -57 -387 -89 -679 -227 -1182 -824 -1288
-1531 -19 -127 -19 -416 0 -552 80 -562 416 -1073 896 -1365 192 -116 392
-195 614 -243 122 -26 145 -28 375 -28 216 0 259 3 360 23 806 161 1409 781
1540 1586 23 137 27 376 10 516 -81 654 -477 1212 -1065 1501 -144 70 -286
119 -455 155 -110 23 -151 27 -345 29 -121 2 -236 1 -255 -2z m386 -24 c723
-70 1324 -523 1592 -1200 95 -239 144 -569 122 -823 -75 -883 -727 -1584
-1600 -1720 -356 -56 -731 -4 -1064 148 -465 212 -841 629 -1002 1110 -250
752 -23 1553 586 2061 374 312 887 471 1366 424z"/>
<path d="M2477 4314 c-3 -3 -3 -37 0 -75 4 -46 1 -83 -7 -110 -19 -55 -8 -60
120 -57 58 1 110 -1 116 -5 20 -12 137 -37 175 -37 39 0 65 21 55 45 -7 19
-50 19 -66 0 -34 -41 -80 9 -63 68 l8 29 27 -21 c27 -21 27 -21 37 -2 21 39
14 53 -24 45 -40 -7 -46 6 -19 44 21 30 42 28 62 -8 19 -33 35 -42 57 -34 20
8 19 37 -3 57 -20 18 -158 50 -194 45 -21 -3 -23 -7 -20 -63 2 -43 -3 -71 -17
-100 -11 -22 -20 -32 -20 -23 -1 9 -11 20 -23 24 -17 5 -27 0 -43 -20 -25 -31
-50 -34 -65 -7 -15 28 -12 116 4 155 10 25 11 37 3 45 -11 11 -89 15 -100 5z"/>
<path d="M2245 4266 c-21 -15 -25 -67 -5 -90 34 -42 106 -1 94 53 -11 47 -52
64 -89 37z"/>
<path d="M1893 4219 c-55 -21 -68 -44 -39 -68 31 -26 61 -161 35 -161 -19 0
-53 22 -109 70 -73 62 -91 71 -115 58 -33 -18 -35 -29 -29 -125 4 -50 4 -103
0 -117 -6 -23 -9 -24 -31 -14 -27 12 -82 88 -91 125 -8 30 -29 29 -71 -3 -38
-29 -41 -43 -12 -68 17 -14 20 -25 15 -54 -3 -21 -6 -46 -6 -56 0 -16 -5 -13
-24 13 -14 19 -28 46 -31 62 -4 17 -13 29 -22 29 -20 0 -83 -47 -83 -62 0 -6
20 -28 45 -50 42 -37 75 -84 75 -106 0 -23 -38 -20 -120 8 -102 35 -121 37
-143 12 -23 -25 -22 -29 23 -123 22 -46 40 -98 40 -116 0 -36 2 -38 31 -23 21
12 51 64 42 74 -4 3 -17 6 -29 6 -34 0 -38 16 -13 50 25 33 59 39 79 15 20
-24 36 -18 78 30 22 25 43 45 46 45 15 0 66 45 66 57 0 8 -9 26 -20 41 -17 23
-20 36 -14 71 l7 42 24 -22 c13 -13 27 -37 31 -53 11 -43 39 -44 86 -1 22 19
44 35 50 35 6 0 22 9 36 20 l25 20 -30 25 -30 25 25 20 c32 26 72 22 85 -7 12
-29 36 -29 94 1 25 13 65 29 89 35 48 14 62 33 40 59 -27 31 -30 42 -11 42 10
0 26 -14 35 -30 19 -33 60 -41 93 -16 17 13 17 15 -10 50 -15 20 -34 36 -42
36 -10 0 -11 4 -3 19 17 32 12 58 -16 80 -34 26 -83 26 -151 0z m103 -44 c7
-30 -2 -75 -16 -75 -23 0 -52 95 -34 113 12 11 44 -13 50 -38z m-296 -150 c25
-27 25 -27 -6 -43 -27 -14 -34 -7 -34 35 0 40 9 41 40 8z m-473 -385 c10 0 0
-30 -13 -40 -18 -15 -37 0 -48 37 -7 21 -5 21 26 12 18 -5 34 -9 35 -9z"/>
<path d="M3043 4209 c-17 -5 -43 -23 -57 -40 -58 -68 -16 -175 77 -200 23 -6
50 -18 61 -27 17 -16 19 -16 30 2 6 10 21 31 34 47 27 33 22 46 -24 65 -52 22
-62 18 -66 -23 -4 -51 -29 -51 -41 1 -16 68 28 165 69 149 12 -5 15 -14 10
-44 -7 -43 13 -72 47 -67 35 5 44 33 24 71 -30 56 -101 84 -164 66z"/>
<path d="M3257 4070 c-11 -37 -31 -75 -52 -99 -33 -36 -34 -39 -17 -54 21 -19
80 -42 88 -34 3 3 7 19 9 35 5 41 37 101 69 131 33 31 33 37 -6 61 -56 34 -71
28 -91 -40z"/>
<path d="M3372 4014 c-29 -20 -52 -65 -52 -101 0 -38 33 -89 72 -114 50 -31
123 -22 160 20 50 55 32 150 -35 191 -39 24 -114 26 -145 4z m134 -40 c18 -69
-71 -202 -102 -152 -19 30 4 115 44 161 23 25 50 21 58 -9z"/>
<path d="M2320 4003 c-72 -9 -267 -56 -335 -80 -428 -154 -787 -525 -923 -953
-58 -183 -67 -246 -66 -470 0 -187 3 -215 28 -325 68 -293 203 -536 420 -750
195 -193 427 -323 706 -393 99 -25 119 -27 335 -27 315 0 424 24 682 150 391
191 676 543 795 981 32 118 32 122 33 349 0 189 -3 245 -19 315 -65 296 -203
554 -411 765 -201 204 -457 346 -740 411 -102 23 -146 27 -295 29 -96 2 -191
1 -210 -2z m443 -37 c184 -34 385 -114 544 -218 605 -395 841 -1175 555 -1836
-191 -439 -584 -759 -1063 -867 -113 -26 -418 -32 -538 -11 -147 26 -266 63
-397 125 -439 209 -733 590 -830 1076 -28 137 -26 426 4 562 65 297 193 533
407 749 245 246 526 386 875 434 91 12 338 4 443 -14z"/>
<path d="M2455 3857 c-55 -22 -94 -51 -123 -92 -75 -104 -69 -204 18 -341 12
-19 8 -28 -32 -90 -25 -38 -67 -92 -94 -120 -61 -62 -84 -124 -84 -220 0 -57
-4 -74 -19 -88 -10 -9 -33 -48 -50 -86 -29 -61 -32 -80 -36 -184 -3 -74 -10
-130 -21 -154 -22 -54 -30 -162 -13 -193 11 -19 26 -220 29 -374 0 -5 -3 -64
-6 -129 -7 -117 -7 -119 14 -114 18 5 21 0 27 -43 12 -84 9 -132 -13 -204 -24
-83 -33 -138 -24 -152 4 -6 21 -17 37 -26 17 -8 41 -27 54 -41 23 -24 27 -25
102 -19 l79 6 0 -25 c0 -17 8 -28 25 -36 43 -20 62 -14 115 33 28 25 60 47 73
49 79 17 98 16 141 -4 53 -24 66 -25 111 -6 39 17 44 35 18 59 -14 12 -17 28
-15 72 3 42 7 54 15 46 17 -17 84 -14 91 5 10 25 6 232 -4 209 -5 -11 -9 -44
-9 -72 -1 -59 -10 -65 -40 -27 -39 49 -22 96 63 168 76 65 86 101 86 310 0 89
7 206 15 261 8 55 15 131 15 168 l0 68 34 -34 c35 -35 77 -50 115 -40 22 6 29
41 11 59 -6 6 -13 21 -15 35 -8 39 -38 72 -91 99 -43 22 -50 30 -59 68 -11 43
-42 83 -108 134 -26 21 -36 37 -40 67 -3 22 -12 54 -21 71 -8 17 -20 67 -26
111 -6 43 -18 95 -26 115 -9 21 -20 91 -25 156 -8 116 -8 120 16 156 87 134
19 334 -132 388 -46 16 -137 17 -178 1z m185 -28 c55 -25 75 -43 108 -94 34
-54 42 -162 16 -220 l-18 -40 -6 65 c-7 78 -38 143 -83 170 -39 24 -123 27
-154 5 -36 -25 -101 -133 -119 -196 -9 -32 -20 -59 -24 -59 -14 0 -39 47 -51
94 -15 59 0 140 35 193 60 91 195 128 296 82z m-20 -125 c24 -5 40 -19 66 -58
l33 -51 6 -183 c4 -148 9 -194 25 -243 22 -65 22 -101 0 -59 -7 14 -28 42 -46
62 -46 52 -54 89 -39 184 7 44 18 99 24 124 19 80 15 105 -24 139 -20 17 -39
31 -44 31 -4 0 -18 -12 -32 -26 -32 -34 -199 -147 -199 -135 0 31 57 132 98
174 48 49 65 54 132 41z m54 -113 c23 -25 15 -62 -16 -76 -30 -13 -38 -46 -9
-38 26 7 26 2 1 -47 -13 -26 -25 -37 -37 -36 -10 2 -12 1 -5 -1 17 -6 15 -21
-6 -32 -21 -11 -69 7 -94 36 -10 11 -21 40 -24 66 -7 51 -13 43 90 126 52 42
63 43 100 2z m-204 -103 c0 -16 -3 -19 -11 -11 -6 6 -8 16 -5 22 11 17 16 13
16 -11z m210 12 c0 -5 -7 -10 -15 -10 -8 0 -15 5 -15 10 0 6 7 10 15 10 8 0
15 -4 15 -10z m-240 -44 c0 -19 -9 -55 -20 -81 -11 -26 -20 -59 -20 -75 0 -52
-48 -145 -93 -181 l-42 -32 36 39 c60 64 71 95 74 211 2 93 5 107 25 129 31
32 40 30 40 -10z m125 -116 c8 0 15 -4 15 -9 0 -5 3 -23 6 -40 6 -28 4 -31
-18 -31 -28 0 -116 53 -124 74 -3 8 2 28 12 45 l18 30 38 -35 c21 -18 45 -34
53 -34z m-210 -57 c-11 -88 -29 -116 -128 -197 -33 -27 -47 -46 -50 -69 -2
-21 -4 -15 -5 20 -3 70 9 95 74 167 31 33 67 78 80 99 13 20 27 37 30 37 4 0
3 -26 -1 -57z m101 16 c28 -31 75 -52 112 -51 26 1 35 -4 44 -23 6 -14 14 -25
18 -25 4 0 22 -30 40 -67 31 -66 32 -72 28 -168 -5 -102 -17 -145 -43 -145
-17 0 -20 16 -5 25 6 3 10 11 10 17 0 6 -9 3 -20 -7 -27 -25 -35 -13 -16 24 9
16 16 43 16 58 -1 23 -5 18 -23 -27 -22 -55 -57 -81 -57 -43 -1 17 -1 17 -11
1 -5 -10 -16 -18 -22 -18 -9 0 -12 19 -11 68 2 37 1 56 -2 42 -12 -66 -28
-110 -40 -110 -7 0 -15 8 -17 18 -4 15 -6 14 -12 -5 -9 -29 -32 -36 -45 -14
-7 15 -3 33 16 76 25 55 26 61 21 193 -3 75 -9 152 -13 170 -7 37 4 41 32 11z
m-30 -104 c3 -14 4 -69 2 -123 -3 -77 -9 -108 -29 -152 -33 -71 -75 -112 -130
-127 -24 -6 -55 -22 -69 -35 l-25 -23 43 -6 c45 -6 84 -36 109 -83 13 -24 14
-56 10 -165 -6 -161 -21 -226 -82 -343 -74 -143 -115 -280 -115 -382 l0 -43
-44 0 -44 0 -7 66 c-12 119 16 200 151 447 40 74 72 185 81 280 7 92 -1 135
-34 168 -27 27 -56 35 -47 13 2 -7 -6 -19 -19 -26 -25 -13 -57 -69 -57 -99 0
-9 -10 -37 -22 -62 -38 -80 -41 -88 -34 -123 8 -45 30 -64 51 -47 12 10 15 9
16 -6 0 -11 4 -46 8 -79 7 -57 6 -64 -30 -132 -21 -39 -41 -88 -45 -108 -13
-69 -24 -14 -24 118 0 91 -4 138 -15 164 -21 49 -19 119 5 188 11 32 23 91 26
129 4 39 12 85 20 103 20 51 90 119 152 148 31 15 65 34 76 43 28 25 55 85 61
134 l5 43 -14 -48 c-25 -83 -56 -120 -144 -165 -44 -23 -92 -56 -106 -73 -14
-17 -26 -27 -26 -23 0 22 37 104 65 144 17 25 43 66 58 92 18 30 47 60 83 84
38 25 64 53 82 85 30 54 48 62 58 24z m335 -130 c21 -44 29 -76 30 -120 1 -33
5 -71 9 -85 7 -22 8 -20 10 15 1 37 2 38 11 15 11 -28 -1 -92 -28 -144 -20
-39 -20 -143 1 -251 9 -44 17 -105 17 -135 l1 -55 9 55 c6 41 4 72 -8 120 -26
110 -11 250 35 310 1 2 7 -2 12 -9 5 -9 3 -23 -7 -37 -12 -20 -14 -46 -9 -151
4 -71 10 -146 13 -168 l7 -40 7 40 c4 22 3 72 -2 110 -18 147 -7 215 36 215
16 0 41 -29 54 -63 11 -27 10 -27 -14 -11 -13 8 -26 23 -28 32 -3 12 -7 9 -16
-13 -12 -29 -11 -78 4 -200 5 -40 -3 -92 -40 -255 -53 -233 -62 -293 -74 -514
-5 -87 -14 -163 -20 -169 -17 -17 -14 123 9 336 15 149 17 210 10 290 -10 120
-35 331 -52 437 -6 41 -12 152 -13 245 -1 135 -5 179 -19 215 -10 25 -20 56
-23 69 l-6 23 28 -23 c15 -13 41 -51 56 -84z m-401 -370 l-21 -34 -31 34 c-16
20 -41 38 -54 41 -13 3 -24 10 -24 15 0 16 31 23 40 9 11 -18 40 1 76 47 l29
38 3 -58 c2 -45 -2 -66 -18 -92z m250 129 c22 -9 40 -20 40 -25 0 -11 4 -11
-61 1 -50 10 -124 3 -171 -15 -21 -8 -26 19 -6 31 41 26 144 30 198 8z m-46
-56 c4 12 11 22 16 22 14 0 53 -161 61 -255 16 -167 4 -563 -21 -740 -41 -280
-49 -427 -29 -499 15 -53 4 -58 -111 -51 -85 5 -98 3 -125 -15 -24 -16 -46
-20 -117 -20 l-88 0 0 104 c0 82 3 106 16 117 32 27 46 70 44 143 -5 245 22
482 65 558 61 109 86 227 89 413 2 146 23 217 66 228 21 5 22 4 15 -41 -8 -53
5 -49 20 6 11 38 35 56 35 25 1 -10 7 -29 16 -43 14 -25 14 -24 8 12 -8 47 4
69 21 38 l13 -23 6 21z m98 -8 c45 -35 76 -197 98 -516 10 -137 9 -186 -6
-335 -13 -134 -15 -224 -11 -391 l6 -218 -25 0 c-13 0 -41 -7 -61 -15 -19 -8
-37 -15 -38 -15 -2 0 -9 23 -15 51 -13 55 -10 129 16 349 33 281 44 444 43
645 -1 238 -9 317 -38 401 -12 32 -21 60 -21 61 0 10 31 0 52 -17z m301 -118
c21 -21 35 -41 32 -44 -3 -3 11 -8 32 -11 37 -6 103 -55 103 -76 0 -16 -17
-13 -24 4 -3 8 -16 15 -28 14 -22 0 -22 -1 -3 -9 30 -12 71 -62 73 -88 0 -12
-3 -20 -8 -17 -4 3 -10 0 -12 -7 -3 -7 -9 -8 -19 -3 -8 5 -20 10 -27 11 -23 4
-44 27 -66 73 -14 31 -28 45 -43 46 -11 1 -33 9 -47 18 -21 14 -26 26 -26 56
0 42 8 71 19 71 4 0 24 -17 44 -38z m-705 -16 c12 -24 12 -30 -2 -44 -12 -13
-18 -13 -28 -4 -7 7 -25 12 -41 12 -27 0 -29 2 -22 27 8 34 22 44 55 41 16 -2
30 -13 38 -32z m-54 -56 c22 -8 24 -13 19 -47 -7 -48 -82 -180 -93 -163 -5 8
-9 7 -13 -4 -9 -23 -35 -8 -42 24 -9 39 7 64 52 85 38 18 53 32 53 50 -1 6 -5
2 -10 -7 -11 -17 -70 -51 -77 -44 -8 8 70 116 83 116 2 0 14 -4 28 -10z m776
-123 c0 -34 -7 -119 -15 -188 -8 -70 -14 -198 -14 -285 1 -140 -1 -164 -19
-204 l-21 -45 0 90 c-1 50 -6 119 -11 154 -11 67 -1 167 41 391 10 58 19 118
19 133 0 16 4 26 10 22 6 -3 10 -34 10 -68z m-813 -783 c24 -24 25 -31 21 -97
-6 -85 -25 -127 -71 -156 -50 -31 -57 -27 -40 21 17 50 21 143 10 211 l-8 47
31 0 c20 0 40 -9 57 -26z m594 -394 c22 -12 25 -30 7 -48 -9 -9 -16 -8 -29 4
-16 15 -17 14 -12 -5 7 -27 -11 -27 -67 0 l-44 21 34 19 c39 21 82 24 111 9z
m-293 -49 c10 -6 3 -17 -29 -45 -46 -39 -83 -51 -58 -18 12 15 11 15 -8 -1
-17 -15 -25 -16 -42 -7 -12 6 -21 14 -21 18 1 39 118 79 158 53z"/>
<path d="M2560 3510 c0 -4 9 -10 20 -13 11 -3 20 -2 20 3 0 4 -9 10 -20 13
-11 3 -20 2 -20 -3z"/>
<path d="M2425 2578 c-4 -20 -4 -42 0 -47 3 -6 -1 -59 -9 -119 -8 -59 -20
-165 -26 -237 -5 -71 -12 -141 -15 -155 -3 -14 4 2 16 35 15 45 21 92 24 185
2 73 10 148 19 180 17 58 19 128 6 170 -7 24 -7 23 -15 -12z"/>
<path d="M2565 1988 c-2 -7 -8 -92 -14 -189 -6 -97 -18 -214 -27 -260 -19 -94
-21 -221 -6 -259 9 -20 11 -7 12 65 0 50 9 151 20 225 29 192 40 496 15 418z"/>
<path d="M2351 1803 c-7 -38 -17 -122 -22 -188 -12 -175 -27 -305 -38 -342
-12 -41 -6 -42 14 -3 8 16 19 77 24 137 5 60 14 122 19 138 9 27 26 325 18
325 -1 0 -8 -30 -15 -67z"/>
<path d="M3100 2466 c0 -2 8 -10 18 -17 15 -13 16 -12 3 4 -13 16 -21 21 -21
13z"/>
<path d="M3060 2446 c0 -2 8 -10 18 -17 15 -13 16 -12 3 4 -13 16 -21 21 -21
13z"/>
<path d="M3090 2446 c0 -2 8 -10 18 -17 15 -13 16 -12 3 4 -13 16 -21 21 -21
13z"/>
<path d="M2090 2409 c-7 -11 -10 -23 -7 -25 2 -2 9 7 15 21 14 30 7 33 -8 4z"/>
<path d="M3630 3865 c-22 -46 -93 -115 -117 -115 -19 0 -16 -24 6 -44 20 -19
41 -14 41 8 0 16 68 106 80 106 5 0 -2 -24 -15 -52 -28 -61 -31 -107 -10 -148
24 -46 75 -67 75 -31 0 23 85 120 117 132 27 10 29 22 7 43 -22 22 -44 20 -44
-4 0 -23 -82 -118 -88 -102 -2 6 9 34 23 63 35 68 36 111 4 145 -45 49 -55 49
-79 -1z"/>
<path d="M3803 3565 c-34 -34 -35 -38 -31 -91 4 -45 10 -61 38 -89 55 -57 127
-59 181 -5 24 23 29 37 29 77 0 87 -55 143 -141 143 -34 0 -47 -6 -76 -35z
m165 -47 c5 -38 -70 -118 -113 -121 -26 -2 -30 2 -33 26 -3 23 6 38 47 78 57
58 94 64 99 17z"/>
<path d="M988 3511 c-33 -26 -58 -80 -58 -125 0 -27 6 -39 25 -52 25 -16 28
-15 96 20 54 29 74 35 84 26 24 -20 6 -42 -30 -36 -38 7 -68 -19 -63 -56 5
-40 44 -35 88 11 50 53 70 112 49 150 -21 37 -50 37 -118 0 -59 -33 -91 -34
-91 -4 0 13 6 15 29 10 23 -5 35 -1 51 15 45 45 -10 82 -62 41z"/>
<path d="M4053 3378 c-26 -29 -107 -68 -143 -68 -24 0 -30 -4 -30 -22 0 -26
35 -88 49 -88 6 0 22 11 36 26 30 30 49 23 43 -17 -4 -25 -1 -29 18 -29 12 0
27 7 34 15 10 12 7 19 -17 39 l-28 24 28 11 c62 24 114 1 89 -40 -27 -42 0
-96 32 -64 9 9 16 25 16 36 0 25 -81 187 -96 193 -7 3 -20 -5 -31 -16z"/>
<path d="M996 3174 c-12 -11 -13 -20 -6 -34 14 -27 27 -32 48 -21 13 7 22 7
30 -1 9 -9 12 -8 12 5 0 19 -42 67 -59 67 -5 0 -17 -7 -25 -16z"/>
<path d="M792 3155 c-16 -34 -15 -65 1 -65 13 -1 67 -45 67 -56 0 -4 -20 -4
-45 -2 -33 4 -48 1 -59 -11 -17 -20 -42 -99 -33 -108 4 -3 33 6 66 21 70 31
100 33 134 6 35 -28 46 -25 63 15 25 62 20 75 -30 75 -40 0 -48 4 -80 42 -20
23 -41 57 -48 75 -14 40 -21 41 -36 8z"/>
<path d="M4198 3044 c-20 -21 -122 -45 -160 -37 -24 5 -28 3 -28 -18 0 -46 12
-50 65 -24 87 44 105 26 25 -26 -27 -18 -50 -38 -50 -45 0 -19 31 -33 86 -41
43 -6 45 -7 23 -15 -13 -5 -41 -7 -62 -4 -48 8 -55 -7 -34 -72 8 -26 15 -64
15 -84 0 -53 9 -62 39 -43 36 24 53 13 53 -35 0 -34 -4 -42 -25 -50 -14 -5
-31 -9 -37 -7 -16 3 -23 -38 -23 -143 0 -102 -1 -101 54 -84 19 6 22 4 19 -12
-2 -13 -13 -20 -33 -22 -43 -5 -65 -29 -65 -70 0 -31 2 -34 23 -28 12 3 30 6
39 6 9 0 23 7 32 15 14 14 17 14 36 -5 39 -39 100 -17 119 43 19 61 24 134 9
143 -7 5 -41 7 -76 5 -60 -3 -122 12 -122 29 0 18 39 46 118 82 88 40 101 55
86 96 -7 20 -25 31 -89 54 -98 35 -122 47 -129 64 -8 22 53 47 129 53 l70 6
-3 35 c-1 19 -9 45 -17 57 -13 19 -19 20 -47 12 -39 -11 -88 -12 -88 -1 0 4
23 19 50 34 55 31 68 59 53 111 -10 37 -31 45 -55 21z m54 -425 c21 -11 20
-12 -13 -29 -40 -21 -49 -18 -49 16 0 27 26 32 62 13z m41 -329 c15 -14 -16
-40 -49 -40 -30 0 -69 33 -59 50 9 15 91 8 108 -10z"/>
<path d="M725 2828 c-28 -25 -44 -77 -45 -145 l0 -41 69 0 c46 0 82 -6 107
-18 l37 -18 -25 -21 c-14 -12 -56 -34 -94 -50 -85 -35 -104 -51 -104 -85 0
-35 9 -41 103 -76 90 -33 124 -58 107 -79 -14 -17 -99 -37 -142 -34 -49 4 -61
-7 -53 -50 10 -56 19 -61 86 -54 64 6 79 -6 30 -27 -16 -6 -41 -24 -56 -40
-24 -25 -26 -33 -20 -70 9 -51 25 -58 65 -28 26 19 44 23 106 23 l74 0 0 31
c0 17 -2 33 -5 36 -3 3 -26 -6 -52 -18 -25 -13 -55 -24 -66 -24 -20 0 -20 0
-1 21 10 12 36 30 57 40 20 11 37 24 37 29 0 16 -43 39 -89 46 -41 6 -43 8
-21 16 14 5 41 6 61 3 44 -8 52 5 38 61 -6 22 -10 57 -10 79 1 55 -12 74 -39
58 -40 -25 -51 -17 -48 35 3 47 3 47 41 50 30 3 37 7 38 25 6 93 10 147 12
177 l2 35 -42 -3 c-32 -2 -43 1 -43 12 0 17 22 26 48 20 13 -4 26 3 41 22 25
32 25 82 1 75 -8 -2 -28 -6 -45 -9 -16 -2 -35 -8 -41 -13 -7 -6 -18 -1 -29 11
-24 26 -58 25 -90 -2z m75 -66 c13 -11 20 -24 16 -30 -15 -25 -106 -6 -106 22
0 29 58 34 90 8z m4 -328 c13 -33 -16 -44 -56 -23 -21 11 -21 12 -3 25 25 19
51 18 59 -2z"/>
<path d="M4215 2094 c-61 -29 -99 -30 -132 -4 -32 25 -48 14 -63 -41 -14 -51
-7 -60 39 -53 34 5 40 3 74 -35 21 -23 45 -57 54 -76 9 -19 20 -35 24 -35 11
0 30 73 21 81 -4 3 -24 18 -45 32 -43 28 -36 40 20 35 42 -4 70 25 80 85 7 44
-1 46 -72 11z"/>
<path d="M3940 1905 c0 -35 29 -66 58 -63 23 2 27 8 27 33 0 28 -2 30 -35 28
-19 -1 -38 4 -42 10 -5 8 -8 4 -8 -8z"/>
<path d="M812 1868 c-21 -21 -13 -69 27 -154 39 -82 60 -101 78 -70 14 25 97
66 134 66 46 0 52 15 29 67 -24 53 -33 57 -60 28 -37 -39 -66 -26 -53 24 7 27
-16 28 -48 2 -23 -18 -23 -18 -2 -25 21 -7 38 -34 28 -44 -3 -3 -27 -6 -53 -6
-42 -1 -47 1 -50 23 -2 13 1 28 7 34 17 17 13 45 -7 56 -13 7 -23 6 -30 -1z"/>
<path d="M3912 1745 c-32 -23 -72 -97 -72 -134 0 -77 41 -91 122 -40 50 30 88
35 96 12 2 -9 -8 -13 -31 -13 -38 0 -71 -28 -65 -57 11 -59 119 16 134 92 9
47 -11 88 -45 93 -14 2 -47 -11 -82 -33 -63 -39 -89 -40 -89 -4 0 19 4 20 33
15 36 -6 49 -1 65 31 25 46 -18 71 -66 38z"/>
<path d="M985 1647 c-30 -30 -35 -41 -35 -83 0 -83 55 -144 130 -144 164 0
155 242 -9 258 -47 4 -53 2 -86 -31z m163 -47 c4 -32 -54 -102 -98 -120 -27
-11 -34 -11 -47 2 -13 14 -13 19 2 48 43 83 136 128 143 70z"/>
<path d="M3798 1567 c-23 -18 -49 -63 -41 -70 3 -4 17 -7 30 -7 38 0 40 -28 5
-63 l-32 -31 -31 23 -32 24 -52 -54 c-29 -30 -67 -66 -85 -81 l-32 -28 26 -31
c26 -30 30 -53 17 -97 l-6 -24 -23 25 c-13 13 -26 37 -31 53 -11 40 -33 41
-75 1 -20 -19 -50 -40 -66 -47 -51 -21 -58 -38 -25 -64 33 -26 28 -42 -19 -61
-27 -12 -33 -11 -48 2 -10 9 -18 22 -18 30 0 20 -30 16 -75 -10 -22 -13 -61
-29 -87 -36 -64 -18 -77 -35 -49 -64 25 -27 27 -47 6 -47 -9 0 -20 11 -25 24
-14 39 -43 49 -85 32 -19 -8 -35 -18 -35 -21 0 -4 18 -23 39 -44 31 -30 38
-43 34 -64 -7 -38 20 -75 59 -82 45 -8 161 33 166 59 2 10 0 21 -6 25 -12 8
-47 79 -56 113 -17 72 21 67 126 -18 74 -60 108 -68 132 -31 12 18 13 35 6 87
-15 99 -13 150 6 157 21 8 82 -52 106 -104 23 -52 42 -54 86 -11 l33 31 -21
22 c-15 16 -20 34 -20 81 1 56 2 58 16 39 9 -11 25 -39 36 -62 10 -24 24 -43
30 -43 21 0 78 51 78 70 0 10 -9 21 -20 25 -30 9 -100 95 -100 121 0 32 20 31
135 -6 76 -24 93 -26 110 -15 33 21 29 58 -14 143 -23 43 -41 90 -41 105 0 31
-12 40 -32 24z m60 -162 c18 -39 15 -44 -19 -35 -41 12 -43 14 -29 39 15 28
34 26 48 -4z m-473 -411 c8 -45 3 -50 -29 -29 -30 20 -33 40 -8 54 26 16 29
14 37 -25z m-288 -135 c16 -31 17 -79 1 -79 -23 0 -48 34 -48 65 0 52 24 59
47 14z"/>
<path d="M1275 1429 c-11 -34 -86 -110 -123 -126 -32 -13 -33 -15 -19 -36 21
-33 42 -32 56 1 14 33 91 113 91 94 0 -7 -13 -39 -30 -72 -39 -77 -38 -104 4
-146 41 -41 52 -42 60 -8 9 33 87 111 120 120 31 7 33 24 8 47 -25 23 -39 21
-46 -5 -6 -26 -63 -98 -76 -98 -5 0 2 24 15 53 35 73 33 117 -6 162 -36 41
-45 43 -54 14z"/>
<path d="M1426 1211 c-56 -37 -70 -94 -40 -158 57 -120 244 -90 244 39 0 105
-120 174 -204 119z m134 -58 c0 -82 -95 -185 -115 -123 -18 56 65 189 100 160
8 -7 15 -23 15 -37z"/>
<path d="M1670 1093 c0 -35 -53 -129 -80 -143 -29 -16 -25 -38 13 -60 46 -29
77 -27 77 5 0 37 44 119 77 143 24 17 26 22 13 37 -17 20 -63 45 -85 45 -10 0
-15 -9 -15 -27z"/>
<path d="M1786 1042 c-8 -16 -22 -34 -30 -41 -9 -8 -16 -17 -16 -22 0 -14 62
-49 87 -49 18 0 22 7 25 37 4 48 24 53 36 9 15 -52 -5 -125 -42 -156 -26 -21
-48 5 -40 46 10 55 -33 85 -70 49 -33 -34 31 -117 101 -131 137 -27 209 154
90 226 -18 11 -39 20 -48 20 -9 0 -28 9 -42 20 -32 26 -34 25 -51 -8z"/>
<path d="M2022 948 c-17 -17 -15 -36 7 -47 15 -8 25 -6 46 11 38 30 59 15 63
-46 3 -51 -6 -58 -39 -25 -17 17 -23 19 -30 8 -5 -8 -9 -24 -9 -36 0 -19 4
-21 35 -16 32 5 35 4 29 -13 -10 -28 -35 -54 -51 -54 -8 0 -22 13 -31 30 -19
33 -35 42 -57 34 -20 -8 -19 -27 3 -52 20 -24 190 -68 204 -54 5 5 11 36 12
68 2 33 8 72 15 87 10 26 12 27 35 12 22 -15 25 -14 55 11 36 30 57 26 72 -12
11 -31 3 -107 -17 -145 -18 -36 -2 -49 57 -49 l47 0 -5 73 c-4 58 -2 81 12
111 12 25 15 40 8 47 -17 17 -174 28 -203 15 -21 -10 -28 -9 -41 5 -17 17
-136 49 -181 49 -13 0 -29 -5 -36 -12z"/>
<path d="M2736 814 c-18 -18 -21 -56 -6 -85 22 -41 100 -14 100 34 0 55 -59
87 -94 51z"/>
</g>
</svg>
