<?xml version="1.0" standalone="no"?>
<!DOCTYPE svg PUBLIC "-//W3C//DTD SVG 20010904//EN"
 "http://www.w3.org/TR/2001/REC-SVG-20010904/DTD/svg10.dtd">
<svg version="1.0" xmlns="http://www.w3.org/2000/svg"
 width="500.000000pt" height="500.000000pt" viewBox="0 0 500.000000 500.000000"
 preserveAspectRatio="xMidYMid meet">
<metadata>
Created by potrace 1.14, written by Peter Selinger 2001-2017
</metadata>
<g transform="translate(0.000000,500.000000) scale(0.100000,-0.100000)"
fill="#000000" stroke="none">
<path d="M2280 4403 c-96 -12 -292 -57 -387 -89 -679 -227 -1182 -824 -1288
-1531 -19 -127 -19 -416 0 -552 80 -562 416 -1073 896 -1365 192 -116 392
-195 614 -243 122 -26 145 -28 375 -28 216 0 259 3 360 23 806 161 1409 781
1540 1586 23 137 27 376 10 516 -81 654 -477 1212 -1065 1501 -144 70 -286
119 -455 155 -110 23 -151 27 -345 29 -121 2 -236 1 -255 -2z m386 -24 c723
-70 1324 -523 1592 -1200 95 -239 144 -569 122 -823 -75 -883 -727 -1584
-1600 -1720 -356 -56 -731 -4 -1064 148 -465 212 -841 629 -1002 1110 -250
752 -23 1553 586 2061 374 312 887 471 1366 424z"/>
<path d="M2483 4334 c-7 -3 -9 -29 -6 -84 4 -53 2 -89 -7 -110 -8 -19 -9 -35
-4 -40 15 -15 178 -24 199 -12 14 7 25 6 39 -3 12 -7 58 -21 104 -30 76 -15
85 -15 108 -1 13 9 24 23 24 31 0 24 -37 28 -68 5 -34 -26 -59 -18 -67 21 -7
31 1 69 15 69 5 0 18 -10 29 -22 l20 -21 11 28 c16 42 7 58 -25 43 -33 -15
-43 -3 -24 30 22 40 54 40 74 2 12 -23 22 -30 38 -28 29 4 33 32 8 55 -23 21
-190 58 -204 44 -4 -4 -9 -39 -11 -77 -2 -78 -22 -129 -38 -101 -12 23 -41 21
-63 -3 -20 -23 -45 -26 -63 -8 -15 15 -16 109 0 159 6 22 9 41 7 44 -8 7 -83
15 -96 9z"/>
<path d="M2236 4268 c-18 -29 -10 -75 16 -89 51 -27 101 26 76 79 -18 37 -71
43 -92 10z"/>
<path d="M1912 4240 c-78 -26 -79 -29 -43 -101 36 -72 42 -129 12 -129 -20 0
-49 21 -125 87 -52 47 -83 53 -110 24 -14 -16 -16 -33 -10 -128 7 -117 2 -133
-35 -113 -25 13 -78 88 -87 123 -8 33 -19 34 -67 2 -43 -30 -44 -36 -17 -73
17 -22 19 -36 14 -76 -7 -45 -8 -48 -22 -30 -8 10 -23 38 -34 62 -10 23 -22
42 -26 42 -16 0 -82 -51 -82 -63 0 -7 14 -23 30 -36 39 -28 90 -98 90 -123 0
-26 -30 -23 -137 13 -50 18 -99 29 -107 26 -9 -4 -21 -17 -27 -31 -9 -20 -5
-37 30 -111 23 -48 41 -101 41 -116 0 -38 21 -37 54 2 28 33 27 49 -3 49 -10
0 -24 6 -30 14 -9 11 -6 21 15 45 30 36 46 39 75 10 19 -19 22 -19 45 -5 13 9
31 28 40 42 10 14 37 39 61 55 40 28 59 69 33 69 -18 0 -30 50 -23 92 l6 41
24 -27 c13 -16 27 -41 30 -57 3 -16 10 -32 15 -35 10 -6 88 42 88 54 0 4 15
14 34 20 19 7 40 20 47 28 11 13 8 19 -17 40 -29 24 -29 24 -9 39 43 34 95 27
95 -13 0 -20 65 -10 100 16 14 10 43 22 64 25 22 3 46 13 54 21 13 13 12 18
-7 42 -14 18 -18 31 -12 37 12 12 41 -9 41 -29 0 -34 83 -41 110 -9 8 10 8 15
-3 22 -8 4 -19 18 -26 31 -6 12 -19 22 -27 22 -12 0 -14 7 -9 30 9 42 -2 68
-35 85 -36 19 -52 18 -118 -5z m70 -27 c10 -9 18 -30 18 -49 0 -68 -47 -48
-57 25 -6 45 6 54 39 24z m-272 -179 c12 -14 12 -18 -5 -30 -28 -21 -40 -12
-43 30 -3 34 -2 36 16 27 10 -5 25 -17 32 -27z m-485 -385 c11 -11 -4 -40 -23
-47 -9 -3 -42 46 -42 64 0 8 53 -5 65 -17z"/>
<path d="M3019 4215 c-84 -46 -76 -176 14 -218 19 -9 42 -17 50 -17 8 0 20 -7
27 -15 20 -24 46 -18 60 15 7 16 18 35 26 41 8 6 14 15 14 20 0 13 -56 39 -84
39 -20 0 -25 -5 -28 -32 -4 -41 -25 -47 -39 -11 -24 63 23 176 66 160 14 -6
16 -15 11 -46 -7 -46 9 -64 51 -59 55 6 37 78 -30 118 -37 23 -101 25 -138 5z"/>
<path d="M3270 4128 c0 -35 -48 -131 -77 -154 l-26 -20 24 -23 c40 -37 109
-41 95 -5 -9 22 26 96 63 135 34 35 31 48 -20 75 -40 20 -59 18 -59 -8z"/>
<path d="M3400 4043 c-30 -11 -70 -57 -76 -89 -15 -79 49 -156 130 -158 80 -2
126 43 126 123 0 81 -103 152 -180 124z m110 -72 c0 -46 -46 -130 -75 -137
-32 -8 -38 -2 -37 36 1 51 22 98 54 125 35 30 58 20 58 -24z"/>
<path d="M2320 4003 c-72 -9 -267 -56 -335 -80 -428 -154 -787 -525 -923 -953
-58 -183 -67 -246 -66 -470 0 -187 3 -215 28 -325 68 -293 203 -536 420 -750
195 -193 427 -323 706 -393 99 -25 119 -27 335 -27 315 0 424 24 682 150 391
191 676 543 795 981 32 118 32 122 33 349 0 189 -3 245 -19 315 -65 296 -203
554 -411 765 -201 204 -457 346 -740 411 -102 23 -146 27 -295 29 -96 2 -191
1 -210 -2z m443 -37 c184 -34 385 -114 544 -218 605 -395 841 -1175 555 -1836
-191 -439 -584 -759 -1063 -867 -113 -26 -418 -32 -538 -11 -147 26 -266 63
-397 125 -439 209 -733 590 -830 1076 -28 137 -26 426 4 562 65 297 193 533
407 749 245 246 526 386 875 434 91 12 338 4 443 -14z"/>
<path d="M2431 3724 c-12 -15 -21 -40 -20 -58 1 -30 2 -30 9 6 4 21 15 47 25
58 10 11 15 20 12 20 -3 0 -15 -12 -26 -26z"/>
<path d="M2575 3727 c10 -15 21 -42 26 -60 8 -30 8 -30 4 7 -2 23 -14 49 -26
60 l-21 21 17 -28z"/>
<path d="M2451 3714 c-29 -37 -26 -44 14 -44 33 0 35 2 35 35 0 43 -20 46 -49
9z"/>
<path d="M2519 3702 c-4 -37 -4 -37 28 -34 37 5 41 17 17 50 -23 34 -41 27
-45 -16z"/>
<path d="M2440 3631 c5 -11 19 -26 30 -34 13 -9 18 -21 15 -33 -4 -13 -2 -12
6 4 14 25 39 30 39 6 0 -8 5 -12 11 -9 6 4 8 9 5 12 -3 3 4 17 14 31 26 32 25
42 -3 42 -16 0 -26 -8 -33 -27 l-11 -28 -13 28 c-10 20 -20 27 -42 27 -25 0
-27 -2 -18 -19z"/>
<path d="M2916 3639 c-38 -4 -72 -13 -76 -19 -4 -7 -32 -21 -61 -31 -40 -14
-45 -18 -20 -14 19 3 59 16 89 30 30 14 64 25 76 25 21 -1 21 -1 2 -15 -28
-21 -16 -19 46 10 56 26 53 27 -56 14z"/>
<path d="M3040 3623 c-36 -14 -88 -27 -116 -29 -28 -2 -62 -8 -75 -13 -22 -9
-20 -10 16 -10 22 -1 61 6 88 14 26 8 47 12 47 10 0 -8 -46 -29 -125 -57 -58
-21 -69 -27 -40 -23 29 4 36 3 25 -4 -8 -6 -11 -11 -7 -11 4 0 25 11 45 25 20
14 41 25 46 25 10 0 166 91 166 96 0 2 -1 3 -2 3 -2 -1 -32 -12 -68 -26z"/>
<path d="M2020 3636 c0 -2 7 -6 15 -10 8 -3 15 -1 15 4 0 6 -7 10 -15 10 -8 0
-15 -2 -15 -4z"/>
<path d="M2143 3623 c4 -3 32 -7 62 -8 31 -1 50 2 43 7 -15 9 -114 11 -105 1z"/>
<path d="M2643 3618 c-19 -25 -24 -43 -6 -22 10 12 25 24 33 27 13 5 12 6 -1
6 -9 1 -21 -5 -26 -11z"/>
<path d="M2737 3620 c23 -5 54 -5 70 0 21 6 12 8 -42 8 -64 0 -66 -1 -28 -8z"/>
<path d="M2067 3609 c7 -7 15 -10 18 -7 3 3 -2 9 -12 12 -14 6 -15 5 -6 -5z"/>
<path d="M2380 3600 c6 -11 12 -20 14 -20 2 0 2 9 -1 20 -3 11 -9 20 -15 20
-5 0 -4 -9 2 -20z"/>
<path d="M2420 3616 c0 -2 8 -10 18 -17 15 -13 16 -12 3 4 -13 16 -21 21 -21
13z"/>
<path d="M1990 3600 c8 -5 24 -9 35 -9 l20 0 -20 9 c-11 5 -27 9 -35 9 -13 1
-13 0 0 -9z"/>
<path d="M2106 3589 c3 -6 -5 -8 -23 -4 -20 4 -24 3 -13 -3 15 -10 139 -28
130 -19 -12 10 -100 35 -94 26z"/>
<path d="M2207 3589 c7 -7 15 -10 18 -7 3 3 -2 9 -12 12 -14 6 -15 5 -6 -5z"/>
<path d="M2326 3582 c7 -4 11 -25 11 -48 -2 -49 24 -92 64 -107 30 -12 35 -22
20 -46 -12 -18 -32 -5 -25 17 5 14 4 14 -4 2 -8 -10 -8 -18 0 -27 16 -20 35
-15 42 11 4 18 11 23 26 19 15 -4 20 -14 20 -41 0 -19 3 -33 6 -29 3 3 3 46
-1 94 -6 83 -8 89 -33 100 l-27 13 23 -19 c25 -22 31 -67 7 -57 -9 3 -15 0
-15 -9 0 -8 -4 -15 -9 -15 -15 0 -72 61 -66 70 4 6 2 10 -3 10 -5 0 -7 12 -4
26 5 25 -9 44 -33 44 -5 0 -5 -4 1 -8z m136 -154 c-7 -7 -12 -8 -12 -2 0 14
12 26 19 19 2 -3 -1 -11 -7 -17z"/>
<path d="M2671 3578 c0 -10 -8 -18 -17 -18 -14 0 -14 -2 0 -15 12 -13 13 -21
4 -40 -6 -14 -15 -25 -20 -25 -5 0 -7 -4 -3 -9 3 -5 -4 -12 -15 -16 -11 -3
-20 -11 -20 -16 0 -5 -9 -9 -19 -9 -21 0 -36 40 -26 70 3 10 1 21 -5 25 -7 4
-9 -28 -8 -97 1 -57 3 -86 5 -65 2 20 8 38 14 38 14 2 21 5 54 18 25 10 31 10
42 -5 7 -10 13 -13 13 -8 0 6 -6 16 -12 23 -11 11 -10 14 0 18 6 3 10 9 6 14
-10 17 6 30 27 19 23 -13 25 -30 3 -30 -8 0 -13 -4 -10 -9 4 -5 16 -4 30 2 18
9 22 15 14 24 -7 9 -6 14 5 19 9 3 14 11 11 19 -3 7 3 15 13 19 15 6 15 8 3
16 -19 12 -43 13 -36 1 11 -17 -12 -61 -29 -55 -18 7 -20 35 -3 52 9 9 9 12 1
12 -7 0 -14 10 -16 23 -3 14 -5 16 -6 5z"/>
<path d="M2057 3559 c7 -7 15 -10 18 -7 3 3 -2 9 -12 12 -14 6 -15 5 -6 -5z"/>
<path d="M2584 3538 l-19 -23 23 19 c21 18 27 26 19 26 -2 0 -12 -10 -23 -22z"/>
<path d="M2255 3530 l-30 -8 27 -1 c15 0 30 -6 34 -13 5 -8 -5 -9 -37 -5 l-44
6 48 -17 c37 -12 47 -20 44 -33 -3 -11 2 -19 15 -22 15 -4 17 -3 8 8 -7 8 -9
19 -6 24 4 5 2 12 -4 16 -6 4 -8 10 -5 15 3 5 1 11 -5 15 -6 4 -8 11 -5 16 7
10 3 10 -40 -1z"/>
<path d="M2390 3515 c0 -8 4 -15 10 -15 5 0 7 7 4 15 -4 8 -8 15 -10 15 -2 0
-4 -7 -4 -15z"/>
<path d="M2768 3503 c7 -3 16 -2 19 1 4 3 -2 6 -13 5 -11 0 -14 -3 -6 -6z"/>
<path d="M2595 3480 c-10 -11 -15 -20 -12 -20 4 0 16 9 27 20 11 11 16 20 12
20 -5 0 -17 -9 -27 -20z"/>
<path d="M2820 3490 c-9 -6 -10 -10 -3 -10 6 0 15 5 18 10 8 12 4 12 -15 0z"/>
<path d="M2593 3375 c0 -8 4 -12 9 -9 5 3 6 10 3 15 -9 13 -12 11 -12 -6z"/>
<path d="M2442 3354 c-14 -16 -5 -18 17 -5 7 5 9 11 5 14 -5 3 -15 -1 -22 -9z"/>
<path d="M2607 3198 c2 -5 13 -8 24 -8 10 0 19 3 19 8 0 4 -11 7 -24 7 -13 0
-22 -3 -19 -7z"/>
<path d="M2586 3176 c7 -18 34 -22 34 -4 0 6 -3 8 -7 5 -3 -4 -12 -2 -20 5
-11 8 -12 7 -7 -6z"/>
<path d="M2496 3154 c-3 -9 -4 -19 -2 -23 3 -4 -7 -15 -23 -24 -15 -8 -33 -28
-41 -44 -8 -15 -19 -31 -25 -35 -6 -5 -5 -8 2 -8 7 0 19 12 27 28 24 46 48 62
90 58 38 -2 66 -25 66 -52 0 -6 8 -18 18 -25 14 -11 15 -11 5 1 -7 8 -13 22
-13 31 0 10 -15 29 -32 44 -32 25 -32 26 -8 23 16 -2 34 -16 49 -40 14 -21 32
-38 43 -38 10 0 18 -7 18 -15 0 -11 18 -15 78 -17 l77 -3 0 -100 0 -100 -28
-3 c-16 -2 -31 -10 -34 -18 -3 -8 -18 -28 -34 -44 -19 -19 -29 -38 -28 -57 1
-25 2 -25 11 10 7 26 19 42 39 53 16 8 29 19 29 24 0 6 13 10 29 10 27 0 28 2
34 61 4 43 11 64 24 74 17 13 17 13 -2 12 -17 -2 -20 5 -23 46 l-3 47 -80 0
c-64 0 -79 3 -79 15 0 9 -9 15 -23 15 -16 0 -28 11 -42 36 -10 19 -27 45 -37
56 -17 20 -18 20 -18 2 -1 -19 -1 -19 -15 0 -14 19 -15 19 -15 -8 0 -18 -4
-26 -12 -23 -7 2 -12 14 -11 26 3 25 -2 28 -11 5z"/>
<path d="M2447 3145 c-10 -9 -27 -35 -38 -56 -13 -26 -26 -39 -40 -39 -11 0
-22 -7 -25 -15 -5 -11 -23 -15 -79 -15 l-72 0 -7 -52 c-9 -61 -9 -56 0 -125 6
-52 7 -53 40 -53 27 0 34 -4 34 -20 0 -11 6 -20 13 -20 35 -1 42 -19 48 -127
l5 -108 2 103 c2 105 -7 142 -33 142 -8 0 -15 9 -15 19 0 16 -8 20 -37 23
l-38 3 -3 103 -3 102 76 0 c58 0 77 3 81 15 4 8 14 15 24 15 10 0 22 10 26 22
4 13 20 35 36 50 17 15 28 33 26 39 -3 8 -10 6 -21 -6z"/>
<path d="M2642 3015 c3 -17 12 -20 76 -23 l72 -3 0 -74 0 -75 -52 -1 c-29 0
-79 0 -112 1 l-58 2 35 -32 c20 -17 44 -49 53 -71 l18 -39 13 31 c7 17 24 40
38 51 14 11 25 26 25 33 0 8 12 15 28 17 27 3 27 3 27 83 l0 80 -70 3 c-52 2
-73 7 -83 20 -13 16 -14 16 -10 -3z m5 -202 c3 -7 -3 -9 -16 -6 -12 3 -21 10
-21 15 0 13 32 6 37 -9z m53 -11 c0 -19 -18 -42 -33 -42 -4 0 -6 4 -3 9 4 5 1
11 -5 13 -5 2 -7 11 -4 21 9 23 45 22 45 -1z"/>
<path d="M2366 3004 c-4 -9 -4 -19 -1 -22 2 -3 7 3 11 12 4 9 4 19 1 22 -2 3
-7 -3 -11 -12z"/>
<path d="M2222 2908 l3 -83 38 -3 c29 -3 37 -7 37 -23 0 -10 4 -19 10 -19 5 0
18 -17 29 -37 11 -21 20 -31 21 -22 0 9 9 28 21 43 18 23 19 29 7 44 -12 15
-11 16 4 4 14 -12 21 -11 40 2 21 15 16 16 -85 16 l-107 0 0 74 0 75 53 4 52
3 -63 2 -63 2 3 -82z m118 -103 c7 -8 20 -15 29 -15 14 -1 14 -2 -2 -11 -20
-12 -37 -4 -37 16 0 7 -6 16 -12 18 -8 4 -9 6 -2 6 6 1 17 -6 24 -14z m30 5
c0 -5 -2 -10 -4 -10 -3 0 -8 5 -11 10 -3 6 -1 10 4 10 6 0 11 -4 11 -10z"/>
<path d="M2503 2973 c-15 -6 -17 -39 -3 -48 6 -3 7 1 4 10 -4 8 -1 22 6 30 13
16 13 16 -7 8z"/>
<path d="M2360 2950 c0 -11 4 -20 9 -20 5 0 7 9 4 20 -3 11 -7 20 -9 20 -2 0
-4 -9 -4 -20z"/>
<path d="M2420 2950 c0 -11 5 -20 10 -20 6 0 10 9 10 20 0 11 -4 20 -10 20 -5
0 -10 -9 -10 -20z"/>
<path d="M2572 2950 c0 -14 2 -19 5 -12 2 6 2 18 0 25 -3 6 -5 1 -5 -13z"/>
<path d="M2602 2948 c4 -28 42 -37 52 -13 7 18 0 35 -14 35 -4 0 -6 -9 -3 -20
4 -14 0 -20 -12 -20 -12 0 -16 6 -12 20 3 11 1 20 -5 20 -5 0 -8 -10 -6 -22z"/>
<path d="M2526 2935 c-3 -8 -1 -15 4 -15 6 0 10 7 10 15 0 8 -2 15 -4 15 -2 0
-6 -7 -10 -15z"/>
<path d="M2920 2910 c0 -5 5 -10 11 -10 5 0 7 5 4 10 -3 6 -8 10 -11 10 -2 0
-4 -4 -4 -10z"/>
<path d="M2375 2899 c-4 -5 -14 -8 -23 -4 -8 3 -19 0 -24 -7 -12 -20 -10 -32
5 -21 20 16 56 22 61 9 2 -6 5 -3 5 6 1 21 -15 32 -24 17z"/>
<path d="M2443 2898 c-22 -28 -24 -38 -9 -32 9 3 16 11 16 17 0 6 7 2 16 -9
14 -18 14 -18 3 6 -15 33 -15 32 -26 18z"/>
<path d="M2490 2888 c0 -17 6 -23 24 -24 32 -2 31 40 -1 44 -18 3 -23 -1 -23
-20z m35 2 c-3 -5 -10 -10 -16 -10 -5 0 -9 5 -9 10 0 6 7 10 16 10 8 0 12 -4
9 -10z"/>
<path d="M2557 2903 c-3 -5 -1 -17 4 -28 7 -17 8 -17 8 8 1 27 -4 34 -12 20z"/>
<path d="M2660 2886 c0 -15 7 -26 20 -29 11 -3 20 -1 20 4 0 5 -7 9 -15 9 -19
0 -15 23 5 32 11 5 9 7 -7 7 -18 1 -23 -5 -23 -23z"/>
<path d="M2591 2882 c-9 -16 -6 -19 19 -19 25 0 27 2 17 19 -7 10 -15 18 -19
18 -4 0 -12 -8 -17 -18z"/>
<path d="M2462 2813 c-76 -37 -112 -122 -111 -262 1 -97 19 -182 32 -148 3 9
3 17 -2 17 -5 0 -11 13 -13 30 -3 22 2 35 18 51 13 13 23 16 26 9 2 -7 11 -5
25 7 13 12 19 24 14 32 -6 9 -10 6 -15 -11 -5 -19 -8 -20 -15 -8 -6 9 -6 19 1
27 6 7 7 13 3 13 -4 0 -2 6 4 13 6 8 8 16 5 19 -8 9 24 80 47 105 14 14 19 28
14 43 -8 26 10 50 39 50 47 0 61 -47 24 -73 -17 -12 -19 -16 -7 -16 13 -1 66
-89 57 -96 -2 -1 -12 -7 -23 -14 -19 -11 -19 -11 5 -9 35 4 36 -21 3 -57 -26
-28 -28 -37 -26 -103 1 -41 4 -79 7 -87 3 -8 -5 -16 -20 -19 -13 -4 -24 -11
-24 -16 0 -6 13 -4 30 5 36 19 44 19 37 1 -4 -10 -1 -13 9 -9 8 3 13 12 10 19
-3 8 6 31 20 51 17 26 21 39 13 44 -7 4 -9 16 -6 28 3 12 1 24 -4 27 -5 3 -9
0 -9 -5 0 -6 -8 -11 -17 -11 -15 0 -14 -2 3 -15 19 -14 19 -14 -1 -15 -17 0
-18 -2 -5 -11 11 -8 12 -12 3 -16 -7 -2 -13 -9 -13 -14 0 -6 5 -7 11 -3 7 4
10 1 7 -7 -3 -8 -12 -15 -21 -17 -15 -3 -17 7 -17 71 0 54 4 78 15 87 10 9 15
9 15 1 0 -6 3 -10 8 -10 38 6 45 -1 39 -43 -5 -36 -4 -40 6 -23 15 26 13 202
-3 252 -17 54 -57 103 -96 119 -43 18 -61 17 -102 -3z m178 -274 c0 -11 -4
-17 -10 -14 -5 3 -10 13 -10 21 0 8 5 14 10 14 6 0 10 -9 10 -21z"/>
<path d="M2499 2688 c-1 -7 -1 -17 0 -22 2 -7 -23 -176 -35 -243 -3 -13 -12
-23 -20 -23 -14 0 -14 3 -4 15 10 12 10 15 -4 15 -9 0 -16 5 -16 11 0 6 9 9
20 6 11 -3 18 -1 14 4 -3 5 -11 9 -19 9 -7 0 -15 6 -17 12 -3 8 -10 4 -17 -11
-8 -14 -9 -21 -2 -17 15 10 14 -4 -4 -38 -15 -27 -14 -31 7 -54 15 -16 18 -23
8 -20 -23 7 -59 78 -66 131 -4 26 -11 47 -16 47 -5 0 -7 -8 -4 -17 2 -10 8
-34 11 -53 11 -55 45 -107 89 -137 23 -15 47 -34 54 -42 10 -13 12 -13 12 0 0
10 10 14 35 14 20 -1 39 3 44 9 7 8 -6 10 -42 8 -67 -4 -114 12 -97 33 10 13
14 13 27 -1 19 -19 30 -10 13 11 -11 13 -7 19 11 17 4 -1 4 8 1 20 -3 14 -1
19 6 14 7 -4 12 -3 12 3 0 5 -5 13 -11 17 -12 7 -6 112 11 188 17 77 20 106
10 106 -6 0 -11 -6 -11 -12z m-25 -303 c-7 -18 -30 -20 -40 -3 -4 6 -3 8 4 4
6 -3 13 -2 17 4 10 16 25 12 19 -5z"/>
<path d="M2547 2680 c3 -11 10 -23 16 -27 7 -4 8 0 4 11 -4 10 -7 22 -7 27 0
5 -4 9 -9 9 -5 0 -7 -9 -4 -20z"/>
<path d="M2692 2584 c-1 -45 -4 -97 -7 -115 -5 -31 -5 -32 5 -10 6 14 9 65 7
115 l-3 91 -2 -81z"/>
<path d="M2551 2624 c0 -11 3 -14 6 -6 3 7 2 16 -1 19 -3 4 -6 -2 -5 -13z"/>
<path d="M2552 2570 c0 -19 2 -27 5 -17 2 9 2 25 0 35 -3 9 -5 1 -5 -18z"/>
<path d="M2643 2364 c-12 -19 -19 -34 -15 -34 9 0 46 60 40 64 -1 2 -13 -12
-25 -30z"/>
<path d="M2513 2253 c9 -2 23 -2 30 0 6 3 -1 5 -18 5 -16 0 -22 -2 -12 -5z"/>
<path d="M2478 2068 l-3 -171 -40 -14 c-135 -46 -203 -107 -249 -223 -27 -69
-24 -183 8 -252 69 -150 240 -238 392 -203 123 28 209 92 260 192 26 52 29 68
29 148 0 80 -4 97 -29 147 -40 77 -99 136 -171 169 -81 37 -125 46 -125 25 0
-11 -9 -16 -30 -16 -23 0 -30 4 -30 20 0 16 7 20 35 20 l35 0 -1 143 c-1 183
-2 187 -45 187 l-34 0 -2 -172z m40 -218 c11 0 27 7 35 15 31 30 174 -17 148
-49 -5 -6 -11 -15 -13 -21 -1 -5 -7 -10 -13 -10 -5 0 -21 -6 -34 -14 -23 -12
-23 -15 -8 -26 16 -11 16 -13 1 -26 -9 -8 -22 -14 -28 -14 -20 0 -54 -30 -58
-50 -3 -21 6 -23 65 -11 16 3 26 2 22 -3 -3 -5 -1 -12 5 -16 6 -4 8 -11 4 -16
-6 -11 -46 -2 -55 13 -8 12 -41 -2 -36 -16 2 -6 0 -21 -4 -34 -6 -17 -1 -36
20 -75 15 -28 34 -52 41 -52 7 0 19 18 27 40 7 22 22 48 34 57 11 10 18 22 15
27 -3 5 1 12 10 15 13 5 14 1 9 -24 -4 -19 -2 -37 6 -46 10 -13 14 -12 26 6 8
11 18 18 23 15 5 -3 20 0 32 7 13 7 26 11 31 10 4 -1 2 7 -5 17 -9 15 -8 24 5
44 15 24 15 28 -8 71 -13 25 -20 46 -15 46 5 0 21 -22 34 -49 20 -38 22 -51
13 -61 -9 -10 -9 -11 1 -6 8 5 12 -2 13 -21 1 -15 1 -32 0 -37 -1 -4 -2 -24
-3 -43 -1 -23 -8 -38 -21 -44 -15 -8 -18 -18 -13 -40 3 -17 1 -29 -5 -29 -6 0
-7 -5 -3 -12 4 -6 -1 -17 -11 -25 -11 -7 -15 -13 -11 -13 11 0 -64 -72 -99
-94 -16 -11 -60 -25 -99 -32 -151 -29 -282 22 -359 139 -59 89 -72 209 -34
297 15 33 16 34 23 12 4 -15 12 -21 22 -17 23 8 55 -4 44 -18 -15 -21 -12 -58
6 -64 9 -3 24 -12 33 -20 9 -8 20 -13 25 -12 26 5 74 -2 74 -11 0 -5 -5 -9
-12 -7 -6 1 -18 -10 -25 -25 -12 -23 -11 -31 7 -63 20 -35 20 -38 4 -56 -9
-11 -14 -19 -9 -19 4 0 2 -7 -5 -15 -13 -16 -6 -65 9 -65 5 0 12 8 15 18 16
40 32 61 49 64 21 3 67 76 60 96 -3 6 0 12 6 12 21 0 11 18 -36 64 -31 30 -54
45 -65 42 -10 -2 -18 -1 -18 4 0 4 11 11 25 14 16 4 22 11 19 21 -3 8 1 24 10
37 21 30 20 51 -4 79 -19 23 -21 23 -34 6 -11 -14 -16 -15 -22 -6 -4 7 -2 15
4 17 15 5 16 32 2 32 -6 0 -19 -5 -29 -12 -23 -14 -46 -6 -61 21 -9 17 -6 23
16 38 15 9 50 25 78 34 44 15 53 16 67 3 8 -8 25 -14 37 -14z"/>
<path d="M2570 1787 c0 -18 -7 -43 -16 -55 -21 -31 -14 -35 24 -16 33 16 40
28 22 39 -5 3 -10 19 -10 36 0 16 -4 29 -10 29 -5 0 -10 -15 -10 -33z"/>
<path d="M2425 1800 c-3 -5 -1 -10 4 -10 6 0 11 5 11 10 0 6 -2 10 -4 10 -3 0
-8 -4 -11 -10z"/>
<path d="M2455 1800 c-3 -5 -1 -10 4 -10 6 0 11 5 11 10 0 6 -2 10 -4 10 -3 0
-8 -4 -11 -10z"/>
<path d="M2450 1770 c0 -5 5 -10 11 -10 5 0 7 5 4 10 -3 6 -8 10 -11 10 -2 0
-4 -4 -4 -10z"/>
<path d="M2523 1755 c-3 -9 -3 -18 0 -21 9 -9 27 6 27 22 0 19 -19 18 -27 -1z"/>
<path d="M2475 1740 c3 -5 8 -10 11 -10 2 0 4 5 4 10 0 6 -5 10 -11 10 -5 0
-7 -4 -4 -10z"/>
<path d="M2518 1603 c7 -3 16 -2 19 1 4 3 -2 6 -13 5 -11 0 -14 -3 -6 -6z"/>
<path d="M2768 1513 c7 -3 16 -2 19 1 4 3 -2 6 -13 5 -11 0 -14 -3 -6 -6z"/>
<path d="M2805 1500 c-3 -5 1 -10 9 -10 9 0 16 5 16 10 0 6 -4 10 -9 10 -6 0
-13 -4 -16 -10z"/>
<path d="M2766 1471 c-4 -5 -2 -12 3 -15 5 -4 12 -2 15 3 4 5 2 12 -3 15 -5 4
-12 2 -15 -3z"/>
<path d="M2631 1431 c-7 -5 -12 -14 -10 -20 3 -6 9 -7 18 -2 7 5 12 14 10 20
-3 6 -9 7 -18 2z"/>
<path d="M2708 1399 c-16 -15 -28 -34 -28 -42 0 -23 33 -29 66 -12 16 8 25 15
20 15 -6 0 -5 5 1 11 15 15 4 58 -16 56 -9 -1 -28 -14 -43 -28z"/>
<path d="M2270 1405 c0 -14 50 -58 57 -51 11 10 -9 42 -32 53 -20 9 -25 8 -25
-2z"/>
<path d="M2348 1403 c7 -3 16 -2 19 1 4 3 -2 6 -13 5 -11 0 -14 -3 -6 -6z"/>
<path d="M2568 1353 c7 -3 16 -2 19 1 4 3 -2 6 -13 5 -11 0 -14 -3 -6 -6z"/>
<path d="M2317 1333 c-11 -10 13 -33 34 -33 22 0 24 11 7 28 -13 13 -31 16
-41 5z"/>
<path d="M2685 1289 c-10 -15 3 -25 16 -12 7 7 7 13 1 17 -6 3 -14 1 -17 -5z"/>
<path d="M2443 1253 c9 -2 23 -2 30 0 6 3 -1 5 -18 5 -16 0 -22 -2 -12 -5z"/>
<path d="M2518 1253 c12 -2 30 -2 40 0 9 3 -1 5 -23 4 -22 0 -30 -2 -17 -4z"/>
<path d="M2613 1243 c9 -2 23 -2 30 0 6 3 -1 5 -18 5 -16 0 -22 -2 -12 -5z"/>
<path d="M2553 1233 c9 -2 23 -2 30 0 6 3 -1 5 -18 5 -16 0 -22 -2 -12 -5z"/>
<path d="M3640 3900 c0 -26 -73 -106 -117 -129 -32 -16 -32 -17 -17 -39 21
-31 40 -27 59 11 9 19 32 49 51 68 l35 34 -25 -58 c-41 -92 -29 -163 34 -197
16 -8 22 -3 40 35 22 46 93 115 118 115 20 0 11 30 -14 47 -21 13 -23 12 -43
-30 -21 -44 -67 -95 -76 -85 -3 3 6 30 21 61 36 79 34 110 -6 152 -38 39 -60
45 -60 15z"/>
<path d="M3832 3604 c-99 -51 -75 -212 36 -244 75 -21 152 37 152 113 0 102
-103 174 -188 131z m138 -66 c0 -51 -75 -128 -124 -128 -30 0 -35 24 -12 68
38 74 136 116 136 60z"/>
<path d="M998 3534 c-57 -30 -88 -143 -50 -177 25 -23 37 -22 99 13 55 31 87
38 98 20 4 -6 1 -17 -5 -25 -9 -11 -17 -11 -36 -3 -31 15 -64 -13 -64 -54 0
-71 114 2 141 91 11 37 11 47 -2 70 -21 37 -46 38 -115 1 -36 -20 -68 -31 -77
-27 -29 11 -19 27 16 27 52 0 92 58 51 74 -21 8 -25 8 -56 -10z"/>
<path d="M4054 3396 c-7 -19 -119 -76 -151 -76 -29 0 -31 -32 -3 -77 24 -40
30 -40 59 -7 28 32 45 27 49 -14 4 -35 17 -40 47 -18 19 14 19 15 -9 41 -35
32 -24 45 40 45 48 0 58 -14 42 -58 -6 -16 -8 -37 -5 -46 10 -25 40 -15 51 16
8 23 3 41 -35 115 -43 86 -72 113 -85 79z"/>
<path d="M991 3181 c-15 -27 9 -56 39 -48 13 3 30 1 37 -5 22 -18 16 29 -7 52
-25 25 -56 26 -69 1z"/>
<path d="M790 3164 c-16 -41 -12 -50 36 -80 l46 -29 -58 -5 -58 -5 -20 -47
c-10 -25 -16 -53 -13 -62 6 -15 12 -14 56 9 61 31 119 33 151 5 13 -11 27 -20
32 -20 13 0 40 69 36 94 -3 18 -9 21 -40 18 -30 -2 -42 3 -71 33 -18 19 -42
53 -52 75 -21 47 -32 50 -45 14z"/>
<path d="M4210 3065 c-19 -22 -117 -48 -161 -42 -37 5 -39 4 -39 -23 0 -30 24
-58 35 -40 8 13 53 35 90 44 l30 8 -29 -31 c-15 -16 -41 -35 -57 -41 -51 -22
-33 -52 40 -69 63 -14 62 -21 -3 -21 -67 0 -73 -8 -52 -71 8 -24 14 -61 14
-83 0 -50 13 -63 43 -42 29 20 49 5 49 -38 0 -39 -15 -56 -52 -56 -22 0 -28
-5 -29 -22 0 -13 -2 -67 -5 -121 l-5 -97 41 6 c33 5 40 4 40 -10 0 -12 -9 -16
-34 -16 -40 0 -66 -28 -66 -72 0 -29 14 -45 25 -28 3 5 19 10 34 10 16 0 34 6
40 14 11 13 15 12 32 -5 34 -34 87 -20 113 29 8 15 16 56 18 92 l3 65 -80 1
c-75 0 -125 14 -125 34 0 13 52 48 117 77 72 32 93 50 93 78 0 32 -25 49 -116
79 -45 15 -89 35 -98 45 -15 16 -15 19 2 34 21 19 114 41 148 34 37 -7 48 15
33 65 l-14 43 -75 -3 -75 -3 39 21 c81 41 101 79 76 144 -11 30 -22 33 -40 11z
m35 -429 l30 -13 -33 -17 c-38 -20 -52 -14 -52 20 0 27 11 29 55 10z m24 -317
c34 -12 37 -19 19 -37 -19 -19 -73 -14 -94 9 -16 17 -16 22 -4 29 20 13 40 12
79 -1z"/>
<path d="M721 2841 c-25 -25 -41 -82 -41 -144 l0 -47 40 6 c50 8 122 -2 146
-21 18 -15 18 -16 -9 -39 -16 -12 -54 -33 -85 -46 -87 -35 -102 -46 -102 -80
0 -35 16 -47 116 -84 40 -15 79 -35 88 -45 15 -16 15 -19 -2 -34 -23 -21 -112
-39 -152 -31 -38 8 -47 -11 -29 -68 l14 -43 70 3 70 2 -47 -25 c-60 -32 -83
-65 -74 -107 10 -51 24 -61 53 -38 30 24 123 44 163 35 28 -6 30 -5 30 24 0
40 -9 44 -56 21 -97 -46 -116 -30 -28 26 30 19 54 41 51 47 -2 7 -32 22 -68
34 l-64 22 58 -1 c73 -2 82 7 66 63 -7 24 -12 62 -11 84 3 53 -9 71 -36 56
-40 -22 -52 -14 -52 33 0 46 9 56 56 56 25 0 30 16 25 87 -1 18 3 51 9 73 6
23 8 50 5 61 -5 16 -12 18 -47 13 -32 -6 -40 -4 -36 7 2 8 22 16 44 19 41 5
67 36 62 75 -3 17 -9 19 -43 17 -22 -2 -47 -10 -55 -18 -13 -11 -17 -10 -28 6
-16 27 -75 27 -101 1z m87 -63 c24 -24 13 -38 -30 -38 -51 0 -73 12 -65 34 8
19 77 22 95 4z m-3 -329 c10 -31 -6 -41 -43 -28 -38 13 -40 22 -9 37 33 16 45
14 52 -9z"/>
<path d="M4225 2113 c-60 -31 -115 -35 -144 -9 -28 25 -48 14 -61 -34 -13 -50
-7 -61 33 -58 18 1 42 -4 54 -10 22 -12 74 -81 86 -115 10 -26 29 -16 38 17 9
31 2 56 -15 56 -6 1 -24 12 -41 25 l-30 25 53 0 c53 0 53 0 72 43 20 43 26 87
13 87 -5 -1 -30 -13 -58 -27z"/>
<path d="M3942 1911 c1 -13 15 -33 30 -44 22 -17 30 -18 43 -7 36 29 6 82 -34
60 -12 -6 -22 -5 -30 3 -10 9 -12 7 -9 -12z"/>
<path d="M812 1878 c-20 -20 -14 -62 22 -139 42 -93 56 -107 82 -78 25 28 111
69 146 69 38 0 42 13 19 65 -21 48 -44 57 -60 26 -24 -43 -67 -31 -56 17 4 18
1 22 -18 22 -13 0 -28 -5 -35 -12 -9 -9 -6 -17 15 -34 32 -25 25 -38 -22 -48
-20 -4 -37 -1 -50 8 -18 13 -19 17 -7 51 11 28 11 39 2 50 -15 18 -22 19 -38
3z"/>
<path d="M3906 1750 c-62 -55 -87 -148 -48 -183 26 -24 41 -21 97 14 54 34
100 43 100 19 0 -10 -11 -15 -34 -15 -55 -1 -85 -66 -33 -73 34 -5 71 24 93
71 26 59 24 91 -7 116 -29 23 -49 18 -112 -24 -42 -29 -70 -32 -79 -9 -9 24
11 38 36 25 18 -10 25 -8 46 13 28 28 31 46 13 64 -19 19 -34 15 -72 -18z"/>
<path d="M1013 1686 c-40 -18 -63 -62 -63 -120 0 -83 88 -151 164 -126 48 16
78 52 83 102 10 104 -93 185 -184 144z m137 -67 c0 -51 -78 -129 -128 -129
-27 0 -33 19 -17 56 29 69 145 127 145 73z"/>
<path d="M3788 1573 c-9 -10 -21 -28 -27 -40 -10 -20 -9 -23 7 -23 10 0 27 -6
37 -14 18 -13 18 -14 -4 -45 -25 -34 -51 -40 -76 -15 -22 23 -57 6 -87 -41
-13 -19 -31 -37 -40 -40 -9 -4 -29 -20 -43 -37 -26 -31 -27 -32 -7 -47 26 -21
35 -52 26 -96 -8 -43 -22 -35 -54 31 -12 24 -29 44 -37 44 -9 0 -33 -16 -54
-35 -22 -19 -45 -35 -52 -35 -13 0 -64 -48 -56 -52 2 -2 13 -8 24 -14 29 -16
25 -35 -11 -56 -37 -22 -57 -16 -73 18 -13 29 -33 27 -91 -10 -19 -13 -51 -26
-71 -30 -20 -3 -44 -15 -53 -25 -15 -17 -15 -19 4 -36 11 -10 20 -24 20 -32 0
-24 -29 -13 -45 17 -17 33 -45 39 -90 18 -28 -13 -32 -23 -11 -35 7 -4 18 -18
25 -30 6 -13 21 -23 32 -23 16 0 18 -3 9 -19 -17 -32 -12 -58 16 -80 32 -25
72 -26 138 -2 65 23 76 40 48 76 -26 32 -54 119 -45 140 10 27 37 16 122 -50
46 -36 88 -65 93 -65 21 0 60 51 55 73 -11 46 -19 157 -13 181 4 18 11 23 26
19 26 -7 89 -83 99 -120 11 -41 36 -40 79 3 l37 37 -23 15 c-19 12 -22 23 -22
74 0 52 2 59 14 48 8 -6 25 -32 36 -56 26 -52 45 -56 83 -16 35 36 34 46 -7
71 -37 23 -86 88 -86 114 0 25 47 22 136 -8 89 -30 96 -30 117 -7 25 27 21 49
-23 132 -22 42 -40 89 -40 108 0 36 -18 42 -42 15z m78 -165 l16 -31 -33 7
c-47 9 -56 22 -34 46 21 23 30 19 51 -22z m-481 -405 c7 -37 0 -40 -33 -17
-26 18 -28 39 -4 53 21 12 28 5 37 -36z m-290 -123 c19 -37 20 -80 1 -80 -25
0 -46 30 -46 64 0 54 21 62 45 16z"/>
<path d="M1264 1425 c-19 -40 -87 -103 -121 -111 -29 -8 -29 -15 0 -42 30 -28
33 -28 41 3 7 26 84 111 92 102 3 -3 -8 -32 -25 -66 -40 -79 -40 -109 2 -149
36 -35 57 -41 57 -17 0 23 85 111 121 125 34 15 35 35 2 57 -21 14 -23 13 -36
-19 -13 -29 -87 -111 -87 -96 0 3 11 30 25 60 31 66 31 105 2 149 -31 47 -52
48 -73 4z"/>
<path d="M1450 1237 c-41 -14 -80 -68 -80 -111 0 -66 71 -136 138 -136 70 0
122 48 122 113 0 97 -91 165 -180 134z m108 -57 c6 -38 -15 -95 -47 -129 -34
-36 -46 -38 -61 -11 -25 46 39 174 83 168 15 -2 23 -11 25 -28z"/>
<path d="M1670 1110 c0 -34 -26 -86 -65 -129 -41 -46 -39 -58 18 -87 34 -18
57 -12 57 15 0 34 38 111 69 139 32 29 31 38 -9 65 -35 24 -70 22 -70 -3z"/>
<path d="M1780 1050 c-7 -16 -18 -35 -26 -41 -23 -19 -16 -29 32 -51 51 -22
61 -18 66 27 4 41 30 39 39 -3 13 -63 -23 -152 -61 -152 -21 0 -22 2 -24 65
-1 39 -2 40 -36 40 -31 0 -35 -3 -38 -27 -2 -19 6 -37 31 -64 28 -31 41 -37
83 -41 83 -8 144 39 144 112 0 56 -52 117 -110 130 -16 3 -34 13 -41 21 -19
23 -46 16 -59 -16z"/>
<path d="M2032 968 c-15 -8 -22 -19 -20 -32 4 -27 34 -32 58 -11 10 9 29 15
42 13 20 -3 23 -9 26 -50 3 -52 -8 -61 -39 -32 -23 21 -39 10 -39 -27 0 -31 9
-36 27 -18 7 7 19 9 28 6 14 -6 14 -9 0 -37 -21 -40 -59 -41 -77 -2 -16 32
-55 42 -65 16 -11 -29 38 -60 121 -79 107 -23 108 -23 110 55 1 36 9 78 17 93
14 25 17 27 28 13 19 -22 48 -20 61 5 8 14 19 19 38 17 39 -5 48 -53 27 -141
-9 -38 -14 -71 -11 -75 4 -3 28 -6 54 -6 l47 -1 -3 70 c-3 50 1 83 14 114 14
35 14 45 4 51 -23 14 -186 23 -208 11 -15 -8 -21 -7 -25 3 -4 10 -177 60 -190
55 -1 0 -12 -5 -25 -11z"/>
<path d="M2732 828 c-18 -18 -14 -73 6 -91 52 -47 116 20 82 84 -12 22 -68 27
-88 7z"/>
</g>
</svg>
